# Blender 4.2.3 LTS
# www.blender.org
mtllib Cesped.mtl
o crystal_9.003
v 0.678678 0.078417 -0.101221
v 0.714820 0.103202 -0.103107
v 0.760268 -0.003528 -0.098602
v 0.709111 -0.003528 -0.098717
v 0.806908 0.111809 -0.014413
v 0.767084 0.113170 -0.013068
v 0.813566 -0.003528 -0.015547
v 0.769641 -0.003528 -0.014706
v 0.825873 0.344325 -0.149664
v 0.790294 0.300393 -0.119381
v 0.612389 0.206576 -0.142797
v 0.574446 0.210917 -0.140814
v 0.773786 0.211609 -0.044556
v 0.812225 0.229702 -0.058726
v 0.761072 0.116724 -0.119204
v 0.732018 0.112151 -0.107070
v 0.746161 -0.003528 -0.114047
v 0.705152 0.317536 -0.189497
v 0.701998 0.274841 -0.156273
v 0.775757 -0.003528 -0.125244
v 0.718656 0.192154 -0.120053
v 0.742060 0.212835 -0.140155
v 0.960445 0.084843 -0.127940
v 0.925906 0.107793 -0.141421
v 0.935157 -0.003528 -0.133842
v 1.015579 0.173916 -0.132173
v 0.978815 0.163672 -0.139886
v 0.897740 0.095728 -0.038595
v 0.861709 0.114550 -0.040431
v 0.827212 -0.003528 -0.039991
v 1.008229 0.305622 -0.156398
v 0.965149 0.289988 -0.145998
v 0.926635 0.239858 -0.101012
v 0.965353 0.232792 -0.103197
v 0.893996 -0.003528 -0.149138
v 0.871106 -0.003528 -0.039466
v 0.713826 0.087152 0.115894
v 0.750910 0.105139 0.107647
v 0.723937 -0.003528 0.111249
v 0.595692 0.327412 0.134512
v 0.637287 0.306640 0.128852
v 0.714508 0.174330 0.114941
v 0.675442 0.165771 0.122468
v 0.767350 -0.003528 0.102845
v 0.835320 0.109395 0.104705
v 0.793975 0.110454 0.105157
v 0.841908 -0.003528 0.107155
v 0.854316 0.370224 0.107714
v 0.820089 0.315817 0.105416
v 0.798048 -0.003528 0.107067
v 0.800653 0.208990 0.105212
v 0.842078 0.226486 0.104793
v 0.959042 0.040727 0.015751
v 0.929245 0.053100 -0.005968
v 0.955703 -0.003528 0.010410
v 0.983629 0.137294 0.028450
v 0.946212 0.090821 0.006177
v 0.926776 -0.003528 -0.009475
v 0.845561 0.115095 0.022476
v 0.877860 0.109979 0.022587
v 0.829429 -0.003528 0.024791
v 0.874309 0.326878 0.025290
v 0.890562 0.275048 0.022854
v 0.861045 -0.003528 0.024516
v 0.886978 0.188447 0.022702
v 0.857162 0.209400 0.022425
v 0.686141 0.088984 0.012603
v 0.722020 0.110396 0.015271
v 0.756315 -0.003528 0.014233
v 0.670799 0.169072 0.032973
v 0.579867 0.073899 0.022084
v 0.614234 0.095397 0.020642
v 0.537155 0.160621 0.036367
v 0.579776 0.132970 0.027815
v 0.712433 -0.003528 0.013572
v 0.601906 -0.003528 0.018637
v 0.642241 -0.003528 0.017837
v 0.635136 0.179705 0.043368
v 0.679668 0.085961 -0.071688
v 0.714212 0.107995 -0.075638
v 0.760730 -0.003528 -0.074568
v 0.709370 -0.003528 -0.073265
v 0.806169 0.105788 -0.043169
v 0.763175 0.107191 -0.040768
v 0.813069 -0.003528 -0.040143
v 0.769208 -0.003528 -0.039485
v 0.826735 0.325890 -0.166444
v 0.793644 0.279492 -0.140081
v 0.612029 0.217511 -0.117442
v 0.572232 0.218344 -0.118094
v 0.769567 0.198328 -0.069993
v 0.814990 0.209521 -0.081958
v 0.750537 0.112230 -0.145926
v 0.719922 0.107257 -0.132848
v 0.737703 -0.003528 -0.137591
v 0.699051 0.303441 -0.209002
v 0.690233 0.258892 -0.177648
v 0.767388 -0.003528 -0.148227
v 0.705431 0.182165 -0.143729
v 0.730989 0.197552 -0.163583
v 0.950431 0.089870 -0.099897
v 0.917850 0.111237 -0.115237
v 0.925794 -0.003528 -0.110315
v 1.009498 0.181290 -0.110326
v 0.972474 0.170638 -0.113402
v 0.897340 0.088014 -0.067245
v 0.858078 0.108339 -0.067895
v 0.827368 -0.003528 -0.064205
v 1.005784 0.289632 -0.175229
v 0.965364 0.269859 -0.167081
v 0.922483 0.225612 -0.126090
v 0.964280 0.213446 -0.127007
v 0.885073 -0.003528 -0.126658
v 0.871308 -0.003528 -0.064759
v 0.708238 0.087152 0.086032
v 0.745795 0.105139 0.080312
v 0.719345 -0.003528 0.086706
v 0.591366 0.327412 0.111389
v 0.632193 0.306640 0.101626
v 0.709219 0.174330 0.086674
v 0.670074 0.165771 0.093781
v 0.762859 -0.003528 0.078845
v 0.835320 0.109395 0.134210
v 0.793975 0.110454 0.133758
v 0.841908 -0.003528 0.131760
v 0.854316 0.370224 0.131201
v 0.820089 0.315817 0.133498
v 0.798048 -0.003528 0.131848
v 0.800653 0.208990 0.133702
v 0.842078 0.226486 0.134122
v 0.975911 0.040727 -0.009123
v 0.944710 0.053100 -0.028772
v 0.969714 -0.003528 -0.010249
v 0.996805 0.137294 0.009023
v 0.962270 0.090821 -0.017501
v 0.940539 -0.003528 -0.029768
v 0.845561 0.115095 0.051570
v 0.877860 0.109979 0.051459
v 0.829429 -0.003528 0.049255
v 0.874309 0.326878 0.048756
v 0.890561 0.275048 0.051192
v 0.861045 -0.003528 0.049530
v 0.886978 0.188447 0.051344
v 0.857162 0.209400 0.051621
v 0.686832 0.083958 0.042384
v 0.723884 0.106948 0.042590
v 0.756036 -0.003528 0.038420
v 0.674375 0.162092 0.059974
v 0.578137 0.076410 -0.007791
v 0.612001 0.097008 -0.006687
v 0.536404 0.164588 0.013016
v 0.574782 0.136047 -0.000166
v 0.712120 -0.003528 0.038887
v 0.601997 -0.003528 -0.006691
v 0.642219 -0.003528 -0.006351
v 0.637301 0.172342 0.065943
vn 0.0102 -0.1615 -0.9868
vn 0.0116 -0.1704 -0.9853
vn -0.0087 -0.0406 -0.9991
vn 0.0717 0.1547 0.9854
vn 0.0729 0.1591 0.9846
vn 0.0259 -0.0109 0.9996
vn -0.0024 0.0044 -1.0000
vn 0.0147 0.0106 -0.9998
vn 0.0058 0.0073 -1.0000
vn 0.0312 -0.2938 -0.9554
vn -0.0125 0.5471 0.8370
vn 0.0625 0.4222 0.9043
vn 0.3984 0.1230 0.9089
vn 0.3975 0.1183 0.9100
vn 0.3700 -0.0060 0.9290
vn 0.1060 0.4620 0.8805
vn 0.0905 0.5106 0.8550
vn 0.0603 0.5982 0.7991
vn 0.4239 0.4021 0.8115
vn 0.4227 0.3168 0.8491
vn 0.3020 -0.1108 -0.9469
vn 0.3458 -0.0351 -0.9377
vn 0.2954 -0.1217 -0.9476
vn 0.0471 0.1782 0.9829
vn 0.0595 0.2064 0.9767
vn -0.0281 0.0059 0.9996
vn 0.2460 -0.2010 -0.9482
vn -0.0025 0.0052 -1.0000
vn -0.0111 0.0109 -0.9999
vn -0.0203 0.0168 -0.9997
vn 0.2035 -0.0061 0.9791
vn 0.2066 -0.0188 0.9782
vn 0.2029 -0.0037 0.9792
vn 0.1843 0.0050 0.9829
vn 0.1612 -0.0011 0.9869
vn 0.1775 0.0032 0.9841
vn -0.0076 -0.0092 -0.9999
vn -0.0045 -0.0194 -0.9998
vn -0.0077 -0.0090 -0.9999
vn 0.4220 0.4736 0.7730
vn -0.5697 -0.0122 0.8218
vn -0.5682 -0.0094 0.8228
vn -0.5829 -0.0376 0.8116
vn -0.5537 0.0173 0.8325
vn -0.0722 0.6365 0.7679
vn 0.0011 -0.0089 -1.0000
vn 0.0010 -0.0092 -1.0000
vn -0.0040 -0.0177 -0.9998
vn -0.0419 0.1072 -0.9934
vn -0.0526 0.1199 -0.9914
vn 0.0386 0.0117 -0.9992
vn 0.0743 -0.0564 0.9956
vn 0.0371 -0.0249 0.9990
vn 0.0805 -0.0616 0.9948
vn 0.1206 -0.0957 0.9881
vn -0.1374 0.2194 -0.9659
vn 0.0078 0.1583 0.9874
vn 0.0562 0.0188 0.9982
vn 0.0050 0.1662 0.9861
vn -0.0771 -0.1713 -0.9822
vn -0.0355 -0.0217 -0.9991
vn -0.0779 -0.1742 -0.9816
vn -0.0024 0.0044 1.0000
vn 0.0058 0.0073 1.0000
vn 0.0147 0.0106 0.9998
vn -0.0454 0.3072 0.9505
vn -0.0519 -0.4306 -0.9010
vn 0.0046 -0.5193 -0.8546
vn -0.3963 -0.1378 -0.9077
vn -0.3640 -0.0267 -0.9310
vn -0.3959 -0.1364 -0.9081
vn -0.1058 -0.4532 -0.8851
vn -0.0364 -0.5783 -0.8150
vn -0.0865 -0.4895 -0.8677
vn -0.4178 -0.3198 -0.8504
vn -0.4124 -0.3751 -0.8302
vn -0.3166 0.1072 0.9425
vn -0.3061 0.1196 0.9445
vn -0.3937 0.0122 0.9191
vn -0.0748 -0.1907 -0.9788
vn -0.0059 -0.0287 -0.9996
vn -0.0840 -0.2121 -0.9736
vn -0.2180 0.2186 0.9512
vn -0.0025 0.0052 1.0000
vn -0.0203 0.0168 0.9997
vn -0.0111 0.0109 0.9999
vn -0.1643 -0.0061 -0.9864
vn -0.1649 -0.0037 -0.9863
vn -0.1611 -0.0188 -0.9868
vn -0.1836 0.0050 -0.9830
vn -0.1904 0.0032 -0.9817
vn -0.2066 -0.0011 -0.9784
vn -0.0076 -0.0092 0.9999
vn -0.0077 -0.0090 0.9999
vn -0.0045 -0.0194 0.9998
vn -0.4025 -0.4502 -0.7971
vn 0.5527 -0.0122 -0.8333
vn 0.5384 -0.0376 -0.8418
vn 0.5542 -0.0094 -0.8323
vn 0.5687 0.0173 -0.8224
vn 0.0770 -0.6231 -0.7784
vn 0.0011 -0.0089 1.0000
vn -0.0040 -0.0177 0.9998
vn 0.0010 -0.0092 1.0000
vn 0.0574 -0.1109 0.9922
vn 0.0131 -0.0349 0.9993
vn 0.0639 -0.1219 0.9905
vn -0.0564 0.0512 -0.9971
vn -0.0674 0.0588 -0.9960
vn 0.0200 -0.0019 -0.9998
vn -0.1512 0.1170 -0.9815
vn 0.1103 -0.2015 0.9733
vn 0.9213 0.3874 -0.0334
vn 0.8448 0.5242 -0.1076
vn 0.8438 0.5256 -0.1084
vn 0.7427 0.6454 -0.1786
vn 0.9998 0.0082 0.0159
vn 0.9978 0.0600 -0.0299
vn 0.9998 0.0098 0.0146
vn -0.9955 -0.0377 0.0867
vn -0.9942 0.0369 0.1009
vn -0.9945 0.0313 0.0998
vn -0.9213 0.2591 -0.2898
vn -0.8236 0.3426 -0.4521
vn -0.9315 0.2471 -0.2671
vn -0.9915 0.1297 0.0096
vn -0.9915 0.1299 0.0087
vn 0.9933 -0.0235 0.1128
vn 0.9955 -0.0312 0.0899
vn 0.9960 -0.0335 0.0829
vn -0.7955 -0.5871 0.1496
vn -0.8821 -0.4586 0.1077
vn -0.8749 -0.4712 0.1117
vn 0.0561 0.9337 -0.3536
vn -0.9075 -0.1483 0.3929
vn -0.8926 -0.1152 0.4359
vn -0.8937 -0.1175 0.4330
vn -0.9270 0.1639 0.3375
vn -0.9381 0.2799 0.2042
vn -0.9236 0.1495 0.3529
vn -0.8805 -0.0260 0.4734
vn -0.8804 -0.0274 0.4734
vn 0.8980 0.1009 -0.4282
vn 0.8984 0.1006 -0.4275
vn 0.8985 0.1005 -0.4274
vn 0.9108 0.1179 -0.3956
vn 0.9110 0.1182 -0.3950
vn -0.2127 0.9205 -0.3278
vn -0.9614 0.2732 0.0318
vn -0.9297 0.3682 -0.0077
vn -0.9316 0.3635 -0.0057
vn -0.4222 0.6838 -0.5952
vn -0.8705 0.4646 -0.1628
vn -0.8706 0.4645 -0.1621
vn 0.9067 -0.3709 0.2008
vn 0.9385 -0.3284 0.1066
vn 0.9402 -0.3248 0.1024
vn 0.9069 -0.3733 0.1954
vn 0.9055 -0.3604 0.2239
vn -0.8380 0.4694 -0.2781
vn 0.4364 0.8961 -0.0816
vn 0.8560 0.4916 -0.1602
vn 0.9314 0.3195 -0.1743
vn -0.8802 -0.4450 0.1647
vn -0.8796 -0.4463 0.1646
vn 0.8455 0.5101 -0.1582
vn -0.9418 -0.2864 0.1762
vn 0.9983 0.0582 -0.0000
vn 1.0000 -0.0001 -0.0000
vn -0.8464 0.5325 -0.0000
vn -0.9329 0.3601 -0.0000
vn -0.9923 0.1235 -0.0000
vn -0.9999 0.0162 -0.0000
vn 0.9975 -0.0711 -0.0000
vn 0.9964 -0.0848 -0.0000
vn -0.6700 0.5871 -0.4544
vn -0.6044 0.6831 -0.4099
vn -0.7929 0.2866 -0.5377
vn 0.7960 -0.2737 0.5399
vn 0.8105 -0.2025 0.5497
vn -0.9917 0.1284 -0.0000
vn -0.9909 0.1348 -0.0000
vn 0.9917 0.1283 -0.0000
vn 0.9542 0.2992 -0.0000
vn 0.9914 -0.1309 -0.0000
vn 0.9969 -0.0785 -0.0000
vn -0.9895 0.1444 -0.0000
vn -0.9911 0.1332 -0.0000
vn 0.9587 0.2841 -0.0105
vn 0.8756 0.4827 0.0206
vn 0.8776 0.4791 0.0200
vn 0.5779 0.8148 0.0471
vn 0.6583 0.7528 0.0039
vn 0.6555 0.7552 0.0054
vn 0.8673 0.4965 -0.0360
vn 0.8645 0.5013 -0.0360
vn -0.9338 -0.3577 0.0026
vn -0.9013 -0.4330 -0.0107
vn -0.9338 -0.3578 0.0025
vn -0.8784 -0.4736 -0.0642
vn -0.9247 -0.3783 -0.0420
vn -0.9261 -0.3750 -0.0412
vn -0.9416 -0.3299 0.0667
vn 0.9219 0.1360 -0.3629
vn 0.8903 -0.2770 0.3615
vn 0.8495 -0.3759 0.3703
vn 0.8479 -0.3793 0.3705
vn -0.8124 0.4788 -0.3329
vn -0.8985 0.2853 -0.3337
vn -0.8103 0.4824 -0.3328
vn -0.6889 0.6518 -0.3171
vn 0.9635 -0.2657 0.0344
vn 0.7969 -0.4738 0.3748
vn -0.9761 -0.1182 0.1826
vn 0.9711 0.1549 -0.1817
vn -0.9994 -0.0357 -0.0000
vn 0.8207 -0.1291 0.5566
vn -0.8256 0.0707 -0.5599
vn 0.9892 -0.1465 -0.0000
vn -0.9612 -0.2752 -0.0185
vn 0.3160 0.9205 0.2297
vn 0.7555 0.6533 0.0497
vn -0.9598 -0.2802 0.0158
vn 0.9593 0.2804 -0.0332
vt 0.300505 0.555164
vt 0.315901 0.553381
vt 0.310655 0.593426
vt 0.295203 0.585272
vt 0.965439 0.889517
vt 0.951584 0.888561
vt 0.958001 0.847630
vt 0.973156 0.849180
vt 0.146905 0.611600
vt 0.152321 0.573177
vt 0.163148 0.553071
vt 0.160888 0.604565
vt 0.295203 0.500442
vt 0.306066 0.507998
vt 0.965731 0.933479
vt 0.952118 0.925066
vt 0.989995 0.404143
vt 0.978693 0.403824
vt 0.978847 0.362480
vt 0.990030 0.361134
vt 0.960713 0.591173
vt 0.974062 0.594873
vt 0.979043 0.628384
vt 0.967495 0.616230
vt 0.990030 0.439601
vt 0.979122 0.433085
vt 0.482123 0.947592
vt 0.476986 0.915123
vt 0.488117 0.909484
vt 0.494602 0.950389
vt 0.971099 0.536521
vt 0.956935 0.537244
vt 0.965413 0.494808
vt 0.979043 0.501297
vt 0.486141 0.976207
vt 0.476986 0.984686
vt 0.704541 0.910509
vt 0.693554 0.904669
vt 0.693726 0.862218
vt 0.701822 0.879720
vt 0.945204 0.264670
vt 0.937092 0.233324
vt 0.951713 0.227428
vt 0.960141 0.265581
vt 0.956853 0.293398
vt 0.948156 0.347627
vt 0.937092 0.360147
vt 0.942587 0.295874
vt 0.159899 0.646390
vt 0.163148 0.686401
vt 0.148192 0.687268
vt 0.145732 0.646816
vt 0.987165 0.479827
vt 0.980842 0.464088
vt 0.495205 0.945252
vt 0.506052 0.943641
vt 0.503984 0.963757
vt 0.494602 0.961178
vt 0.494602 0.909484
vt 0.502705 0.928910
vt 0.973156 0.978950
vt 0.960295 0.960713
vt 0.693893 0.938596
vt 0.705020 0.938713
vt 0.704262 0.979668
vt 0.693554 0.981317
vt 0.752771 0.927592
vt 0.766991 0.925202
vt 0.761185 0.966801
vt 0.747414 0.961039
vt 0.936859 0.660910
vt 0.933680 0.632366
vt 0.946461 0.626674
vt 0.950734 0.663123
vt 0.944233 0.680327
vt 0.933680 0.695424
vt 0.747414 0.889233
vt 0.757965 0.898133
vt 0.157183 0.928463
vt 0.162880 0.961665
vt 0.147319 0.970396
vt 0.142766 0.927434
vt 0.685487 0.939408
vt 0.693554 0.977404
vt 0.678743 0.980125
vt 0.670700 0.941559
vt 0.961308 0.302806
vt 0.975360 0.309025
vt 0.978187 0.360189
vt 0.966795 0.340755
vt 0.151129 0.876032
vt 0.162880 0.869020
vt 0.670956 0.909458
vt 0.686898 0.902843
vt 0.990995 0.561515
vt 0.990327 0.603095
vt 0.979217 0.601249
vt 0.979043 0.561263
vt 0.946985 0.937070
vt 0.937777 0.959398
vt 0.928505 0.972837
vt 0.932501 0.940644
vt 0.979489 0.534758
vt 0.990995 0.531426
vt 0.798945 0.926098
vt 0.786528 0.929908
vt 0.793461 0.889233
vt 0.805317 0.893345
vt 0.936586 0.888399
vt 0.928505 0.855347
vt 0.941456 0.847630
vt 0.951584 0.887844
vt 0.805317 0.964251
vt 0.795251 0.956184
vt 0.118636 0.932989
vt 0.116091 0.963641
vt 0.108455 0.981516
vt 0.107451 0.939410
vt 0.942024 0.589764
vt 0.956935 0.588573
vt 0.948340 0.626674
vt 0.933680 0.621067
vt 0.953677 0.560947
vt 0.939367 0.558737
vt 0.933680 0.494808
vt 0.944929 0.507109
vt 0.974377 0.267444
vt 0.960141 0.267814
vt 0.963046 0.227428
vt 0.978187 0.227459
vt 0.982088 0.508634
vt 0.990730 0.494808
vt 0.872554 0.234999
vt 0.874408 0.250186
vt 0.865828 0.250155
vt 0.863067 0.230578
vt 0.865825 0.217503
vt 0.874408 0.201137
vt 0.682149 0.880274
vt 0.693554 0.862218
vt 0.107597 0.905797
vt 0.107451 0.863581
vt 0.118289 0.864576
vt 0.118927 0.905030
vt 0.781821 0.925452
vt 0.786528 0.957607
vt 0.772892 0.964315
vt 0.766991 0.923678
vt 0.960183 0.663898
vt 0.973689 0.661130
vt 0.969762 0.697911
vt 0.956935 0.693067
vt 0.956935 0.628384
vt 0.966493 0.643319
vt 0.775958 0.898229
vt 0.786528 0.889233
vt 0.967096 0.131858
vt 0.959895 0.171600
vt 0.950051 0.170820
vt 0.958855 0.129684
vt 0.967096 0.217252
vt 0.957370 0.218728
vt 0.950360 0.038350
vt 0.965129 -0.000000
vt 0.973337 0.002957
vt 0.960721 0.039835
vt 0.965020 0.361134
vt 0.977712 0.400466
vt 0.967675 0.401563
vt 0.956935 0.363952
vt 0.965626 0.476191
vt 0.964251 0.494808
vt 0.956935 0.490479
vt 0.957039 0.471493
vt 0.978694 0.437458
vt 0.968579 0.435820
vt 0.965441 0.129684
vt 0.950051 0.082084
vt 0.960261 0.077996
vt 0.973337 0.125540
vt 0.805317 0.969217
vt 0.811845 0.920106
vt 0.822259 0.918613
vt 0.813221 0.968603
vt 0.633186 0.237154
vt 0.632274 0.250729
vt 0.624181 0.251428
vt 0.624181 0.237194
vt 0.075599 0.863581
vt 0.086812 0.902458
vt 0.076601 0.903143
vt 0.066948 0.865776
vt 0.082064 0.962784
vt 0.075287 0.980750
vt 0.066948 0.977737
vt 0.072344 0.959243
vt 0.088320 0.931043
vt 0.078224 0.929757
vt 0.099353 0.983298
vt 0.088893 0.941366
vt 0.098639 0.938463
vt 0.107451 0.980202
vt 0.088320 0.905550
vt 0.098352 0.906556
vt 0.624182 0.237154
vt 0.624182 0.250516
vt 0.614481 0.250870
vt 0.616125 0.237755
vt 0.130700 0.869020
vt 0.142766 0.910734
vt 0.132760 0.910748
vt 0.122628 0.870998
vt 0.943593 0.965059
vt 0.932579 0.977738
vt 0.138456 0.960423
vt 0.128608 0.957440
vt 0.977378 0.926752
vt 0.973156 0.878882
vt 0.983715 0.879323
vt 0.987631 0.922843
vt 0.985772 0.953673
vt 0.994010 0.950463
vt 0.131114 0.982224
vt 0.122628 0.976950
vt 0.603824 0.237154
vt 0.604703 0.252233
vt 0.594802 0.252233
vt 0.595415 0.237154
vt 0.322838 0.646490
vt 0.322616 0.673027
vt 0.312680 0.673128
vt 0.312564 0.646594
vt 0.989535 0.756734
vt 0.988070 0.810975
vt 0.979708 0.811416
vt 0.979161 0.757281
vt 0.322838 0.595323
vt 0.312942 0.595424
vt 0.989962 0.730356
vt 0.979163 0.730926
vt 0.313374 0.894639
vt 0.311834 0.854440
vt 0.322263 0.854107
vt 0.322071 0.894361
vt 0.471444 0.707471
vt 0.474793 0.728265
vt 0.465138 0.728202
vt 0.463368 0.707418
vt 0.475252 0.767019
vt 0.474538 0.802277
vt 0.464705 0.802213
vt 0.465457 0.766954
vt 0.311897 0.813486
vt 0.313179 0.763400
vt 0.321480 0.763135
vt 0.322263 0.813155
vt 0.584573 0.252335
vt 0.585566 0.237154
vt 0.593959 0.237154
vt 0.594802 0.252335
vt 0.145732 0.702663
vt 0.147715 0.688139
vt 0.155667 0.687268
vt 0.153391 0.701824
vt 0.876511 0.250798
vt 0.874408 0.216533
vt 0.882356 0.218554
vt 0.882719 0.252375
vt 1.000000 0.775060
vt 0.999376 0.817855
vt 0.990964 0.817853
vt 0.989997 0.775057
vt 0.988463 0.019509
vt 0.988267 0.000281
vt 0.996561 0.000000
vt 0.998478 0.019170
vt 0.988267 0.077069
vt 0.988521 0.049879
vt 0.998645 0.049535
vt 0.998471 0.076723
vt 0.998731 0.698656
vt 1.000000 0.741089
vt 0.989962 0.741086
vt 0.990663 0.698654
vt 0.898609 0.697095
vt 0.894972 0.655078
vt 0.904773 0.655662
vt 0.907122 0.696434
vt 0.584573 0.237154
vt 0.584573 0.252814
vt 0.574393 0.252902
vt 0.576295 0.238422
vt 0.516477 0.910574
vt 0.515834 0.925837
vt 0.506052 0.925412
vt 0.506314 0.909484
vt 0.930181 0.657785
vt 0.931029 0.686738
vt 0.922940 0.688424
vt 0.919750 0.659003
vt 0.911693 0.692955
vt 0.907122 0.662927
vt 0.917486 0.661167
vt 0.919750 0.690429
vt 0.805317 0.892672
vt 0.813391 0.889233
vt 0.099150 0.863581
vt 0.107451 0.865731
vt 0.311834 0.956708
vt 0.312765 0.926704
vt 0.321899 0.923355
vt 0.319566 0.955333
vt 0.976311 0.177678
vt 0.973925 0.218728
vt 0.967096 0.217964
vt 0.968392 0.175454
vt 0.975022 0.155060
vt 0.967096 0.151493
vt 0.985471 0.847630
vt 0.994010 0.850259
vt 0.311834 0.898375
vt 0.318948 0.894639
vt 0.988037 0.698653
vt 0.979161 0.699122
vt 0.322415 0.712357
vt 0.313692 0.712445
vt 0.471889 0.842548
vt 0.463368 0.842492
vt 0.876118 0.201137
vt 0.882719 0.202815
vt 0.148852 0.722724
vt 0.155667 0.721977
vt 0.988444 0.116174
vt 0.997286 0.115874
vt 0.911077 0.631206
vt 0.919750 0.631188
vt 0.604703 0.250820
vt 0.606341 0.237602
vt 0.614481 0.237154
vt 0.614481 0.250625
vt 0.897273 0.631187
vt 0.907122 0.633117
vt 0.931029 0.631188
vt 0.922336 0.631524
vt 0.516477 0.962350
vt 0.507925 0.962587
s 1
f 1/1/1 2/2/2 3/3/3 4/4/3
f 5/5/4 6/6/5 8/7/6 7/8/6
f 51/9/7 49/10/8 48/11/8 52/12/9
f 2/2/2 1/1/1 12/13/10 11/14/10
f 6/6/5 5/5/4 14/15/11 13/16/12
f 15/17/13 16/18/14 17/19/15 20/20/15
f 33/21/16 34/22/17 31/23/18 32/24/18
f 16/18/14 15/17/13 22/25/19 21/26/20
f 23/27/21 25/28/22 35/29/22 24/30/23
f 28/31/24 29/32/25 30/33/26 36/34/26
f 29/32/25 28/31/24 34/22/17 33/21/16
f 24/30/23 27/35/27 26/36/27 23/27/21
f 65/37/28 66/38/29 62/39/30 63/40/30
f 37/41/31 39/42/32 44/43/32 38/44/33
f 42/45/34 41/46/35 40/47/35 43/48/36
f 38/44/33 42/45/34 43/48/36 37/41/31
f 45/49/37 47/50/38 50/51/38 46/52/39
f 21/26/20 22/25/19 18/53/40 19/54/40
f 46/52/39 51/9/7 52/12/9 45/49/37
f 53/55/41 54/56/42 58/57/43 55/58/43
f 54/56/42 53/55/41 56/59/44 57/60/44
f 13/16/12 14/15/11 9/61/45 10/62/45
f 59/63/46 60/64/47 64/65/48 61/66/48
f 60/64/47 59/63/46 66/38/29 65/37/28
f 67/67/49 68/68/50 69/69/51 75/70/51
f 71/71/52 76/72/53 77/73/53 72/74/54
f 72/74/54 74/75/55 73/76/55 71/71/52
f 68/68/50 67/67/49 78/77/56 70/78/56
f 79/79/57 82/80/58 81/81/58 80/82/59
f 83/83/60 85/84/61 86/85/61 84/86/62
f 129/87/63 130/88/64 126/89/65 127/90/65
f 80/82/59 89/91/66 90/92/66 79/79/57
f 84/86/62 91/93/67 92/94/68 83/83/60
f 93/95/69 98/96/70 95/97/70 94/98/71
f 111/99/72 110/100/73 109/101/73 112/102/74
f 94/98/71 99/103/75 100/104/76 93/95/69
f 101/105/77 102/106/78 113/107/79 103/108/79
f 106/109/80 114/110/81 108/111/81 107/112/82
f 107/112/82 111/99/72 112/102/74 106/109/80
f 102/106/78 101/105/77 104/113/83 105/114/83
f 143/115/84 141/116/85 140/117/85 144/118/86
f 115/119/87 116/120/88 122/121/89 117/122/89
f 120/123/90 121/124/91 118/125/92 119/126/92
f 116/120/88 115/119/87 121/124/91 120/123/90
f 123/127/93 124/128/94 128/129/95 125/130/95
f 99/103/75 97/131/96 96/132/96 100/104/76
f 124/128/94 123/127/93 130/88/64 129/87/63
f 131/133/97 133/134/98 136/135/98 132/136/99
f 132/136/99 135/137/100 134/138/100 131/133/97
f 91/93/67 88/139/101 87/140/101 92/94/68
f 137/141/102 139/142/103 142/143/103 138/144/104
f 138/144/104 143/115/84 144/118/86 137/141/102
f 145/145/105 153/146/106 147/147/106 146/148/107
f 149/149/108 150/150/109 155/151/110 154/152/110
f 150/150/109 149/149/108 151/153/111 152/154/111
f 146/148/107 148/155/112 156/156/112 145/145/105
f 3/157/113 2/158/114 80/159/115 81/160/113
f 2/158/114 11/161/116 89/162/116 80/159/115
f 5/163/117 7/164/118 85/165/118 83/166/119
f 8/167/120 6/168/121 84/169/122 86/170/120
f 10/171/123 9/172/124 87/173/124 88/174/125
f 6/168/121 13/175/126 91/176/127 84/169/122
f 9/177/128 14/178/129 92/179/130 87/180/128
f 12/181/131 1/182/132 79/183/133 90/184/131
f 11/185/134 12/186/134 90/187/134 89/188/134
f 13/175/126 10/171/123 88/174/125 91/176/127
f 14/178/129 5/163/117 83/166/119 92/179/130
f 17/189/135 16/190/136 94/191/137 95/192/135
f 19/193/138 18/194/139 96/195/139 97/196/140
f 16/190/136 21/197/141 99/198/142 94/191/137
f 18/199/143 22/200/144 100/201/145 96/202/143
f 21/197/141 19/193/138 97/196/140 99/198/142
f 22/200/144 15/203/146 93/204/147 100/201/145
f 26/205/148 27/206/148 105/207/148 104/208/148
f 30/209/149 29/210/150 107/211/151 108/212/149
f 32/213/152 31/214/152 109/101/152 110/100/152
f 29/210/150 33/215/153 111/216/154 107/211/151
f 34/217/155 28/218/156 106/219/157 112/220/158
f 31/221/159 34/217/155 112/220/158 109/222/159
f 33/215/153 32/223/160 110/224/160 111/216/154
f 40/225/161 41/226/161 119/227/161 118/228/161
f 42/229/162 38/230/163 116/231/163 120/232/162
f 43/233/164 40/234/165 118/235/165 121/236/164
f 41/237/166 42/229/162 120/232/162 119/238/166
f 37/239/167 43/233/164 121/236/164 115/240/167
f 47/241/168 45/242/169 123/243/169 125/244/168
f 48/245/170 49/246/171 127/247/171 126/248/170
f 51/249/172 46/250/173 124/251/173 129/252/172
f 52/253/174 48/254/175 126/255/175 130/256/174
f 49/246/171 51/249/172 129/252/172 127/247/171
f 45/242/169 52/253/174 130/256/174 123/243/169
f 57/257/176 56/258/177 134/259/177 135/260/176
f 54/261/178 57/262/176 135/263/176 132/264/178
f 56/265/179 53/266/180 131/267/180 134/268/179
f 59/269/181 61/270/182 139/271/182 137/272/181
f 63/273/183 62/274/184 140/275/184 141/276/183
f 60/277/185 65/278/186 143/279/186 138/280/185
f 62/281/187 66/282/188 144/283/188 140/284/187
f 65/278/186 63/273/183 141/276/183 143/279/186
f 66/282/188 59/269/181 137/272/181 144/283/188
f 69/285/189 68/286/190 146/287/191 147/288/189
f 73/289/192 74/290/193 152/291/194 151/292/192
f 74/293/193 72/294/195 150/295/196 152/296/194
f 71/297/197 73/298/198 151/299/198 149/300/199
f 78/301/200 67/302/201 145/303/202 156/304/200
f 1/182/132 4/305/203 82/306/203 79/183/133
f 15/203/146 20/307/204 98/308/204 93/204/147
f 25/309/205 23/310/206 101/311/207 103/312/205
f 24/313/208 35/314/209 113/315/209 102/316/210
f 27/317/211 24/313/208 102/316/210 105/318/211
f 28/218/156 36/319/212 114/320/212 106/219/157
f 23/310/206 26/321/213 104/322/213 101/311/207
f 39/323/214 37/239/167 115/240/167 117/324/214
f 38/230/163 44/325/215 122/326/215 116/231/163
f 46/250/173 50/327/216 128/328/216 124/251/173
f 53/266/180 55/329/217 133/330/217 131/267/180
f 58/331/218 54/261/178 132/264/178 136/332/218
f 64/333/219 60/277/185 138/280/185 142/334/219
f 67/302/201 75/335/220 153/336/220 145/303/202
f 70/337/221 78/338/221 156/339/221 148/340/221
f 68/286/190 70/341/222 148/342/222 146/287/191
f 76/343/223 71/297/197 149/300/199 154/344/223
f 72/294/195 77/345/224 155/346/224 150/295/196
