# Blender 4.2.3 LTS
# www.blender.org
mtllib Piedra1.mtl
o crystal_9.001
v -1.097692 0.010350 0.339580
v -1.086838 0.355898 0.307736
v -1.448054 -0.002918 -0.179839
v -1.215457 0.373221 0.138827
v -0.617062 0.039348 -0.279770
v -0.683171 0.336011 -0.194429
v -1.345268 0.024610 -0.313305
v -0.724806 -0.003215 0.090192
v -0.734185 0.378850 0.107949
v -1.162994 -0.015521 0.275667
v -1.145104 0.362465 0.236448
v -0.681087 0.033544 -0.358439
v -0.828978 0.380740 0.056390
v -0.802809 -0.013367 0.046615
v -1.084975 0.306151 0.356216
v -1.306620 0.329240 0.044030
v -0.665058 0.285490 -0.220748
v -0.641460 0.326407 0.065090
v -1.268397 0.316496 -0.249937
v -0.758191 0.302965 -0.292767
v -1.166614 0.311932 0.288261
v -1.249614 0.047471 -0.400149
v -1.037968 0.067669 -0.547413
v -0.960541 0.338217 -0.373511
v -1.165604 0.340269 -0.345651
v -1.160218 0.366818 -0.300673
v -0.890935 0.378955 -0.285839
v -0.997556 0.404313 -0.067989
v -1.191628 0.374952 -0.240253
v -1.192271 0.396060 -0.101739
v -0.839405 0.314814 0.358422
v -0.610012 0.324606 0.080609
v -0.512426 0.029614 -0.113606
v -0.471352 0.006752 0.242937
v -0.507465 0.177967 0.160878
v -0.543544 0.160299 -0.103109
v -1.407956 0.140896 -0.217216
v -0.651516 0.168798 -0.257810
v -1.318371 0.185839 -0.325906
v -0.763731 0.193898 -0.336574
v -1.171595 0.158662 0.311539
v -1.127167 0.186898 0.389321
v -1.006041 0.238577 -0.452494
v -1.237359 0.179494 -0.388948
v -0.839444 0.282650 0.429793
v -1.115802 0.274770 0.376500
v -1.173556 0.296947 -0.376444
v -0.538998 0.286386 0.181325
v -1.372902 0.295898 -0.148180
v -0.653863 0.259898 -0.239332
v -1.283495 0.289179 -0.306567
v -0.764464 0.281619 -0.311584
v -1.175004 0.278998 0.301653
v -0.984654 0.305212 -0.423888
v -0.555090 0.263230 -0.092409
v -0.712476 0.008368 0.436552
v -0.888804 0.009502 0.449768
v -0.915226 0.182647 0.436470
v -0.741745 0.180109 0.419727
v -0.878720 0.371115 0.228187
v -0.975670 0.376584 0.203388
v -0.757061 0.323172 0.267722
v -0.813035 0.325885 0.257451
v -0.704294 0.268436 0.392504
v -1.481957 -0.001134 -0.034397
v -1.325063 -0.001655 0.308685
v -1.514526 0.144815 0.004364
v -1.279947 0.168229 0.339008
v -1.392761 0.303460 -0.045930
v -1.237046 0.282222 0.309877
v -1.189949 0.368084 0.180481
v -1.187367 -0.023799 0.054867
v -1.236207 0.331173 0.190508
v -1.267707 0.300963 0.177539
v -1.430754 -0.004420 0.152918
v -1.433858 0.171746 0.201927
v -1.303277 0.306500 0.209561
v -0.828997 0.295943 0.404510
v -1.101190 0.298179 0.361757
v -1.170566 0.317668 -0.368351
v -0.555460 0.302466 0.151115
v -1.336451 0.306413 -0.141283
v -0.662520 0.272958 -0.238494
v -1.285809 0.297440 -0.287543
v -0.760034 0.292086 -0.301463
v -1.179424 0.301908 0.292404
v -0.973739 0.317475 -0.399858
v -0.705485 0.300807 0.320222
v -1.258779 0.309353 0.181349
v -0.587838 0.290481 -0.117141
v -1.211342 -0.025971 -0.239993
v -1.219207 -0.034952 -0.109893
v -1.124521 -0.042908 -0.024518
v -0.993859 -0.039550 0.071066
v -0.855651 -0.039282 -0.000380
v -0.710814 -0.017407 -0.300163
v -0.991695 0.007104 -0.492828
v -1.198200 -0.010784 -0.314320
v -1.075240 0.338862 0.340121
v -0.944705 0.362279 0.280800
v -0.751775 0.363601 -0.204014
v -0.733094 0.370281 -0.087234
v -0.683587 0.356853 -0.080644
v -1.280636 0.368358 0.045489
v -1.257568 0.385144 -0.009976
v -1.262717 -0.020534 -0.000313
v -1.156304 -0.041355 -0.047421
v -1.326288 0.313383 0.047548
v -1.481449 0.156883 0.128561
v -1.445250 -0.007208 0.076751
v -1.366347 0.306787 0.051718
v -1.330042 0.306130 0.058015
v -1.317766 0.324420 -0.135410
vn -0.6603 0.6488 0.3782
vn -0.7216 0.6659 0.1891
vn -0.6947 0.6981 0.1733
vn 0.4455 0.6616 -0.6032
vn 0.4777 0.6556 -0.5848
vn 0.4971 0.6516 -0.5730
vn 0.3041 0.5329 0.7897
vn 0.1349 -0.9883 0.0708
vn 0.1404 -0.9876 -0.0696
vn 0.0761 -0.9971 0.0046
vn -0.0251 0.9863 0.1630
vn -0.0166 0.9925 0.1214
vn 0.3570 0.9251 -0.1295
vn 0.3155 0.9366 -0.1525
vn 0.2791 0.9447 -0.1720
vn -0.3127 -0.8520 0.4198
vn -0.3536 -0.7874 0.5049
vn 0.7416 0.6685 -0.0562
vn -0.1520 -0.9845 0.0873
vn -0.1598 -0.9849 0.0661
vn -0.1452 -0.9838 0.1051
vn 0.3822 0.7205 -0.5787
vn 0.3888 0.6285 -0.6737
vn -0.5368 0.7558 -0.3749
vn -0.6631 0.7232 -0.1932
vn -0.0024 0.9948 0.1018
vn 0.0071 0.9969 0.0782
vn -0.5198 0.6463 0.5587
vn -0.5032 0.6961 0.5120
vn -0.4875 0.7081 0.5109
vn 0.6768 0.7283 -0.1072
vn 0.4792 0.8724 -0.0968
vn 0.6807 0.7246 -0.1073
vn 0.1641 -0.9503 0.2645
vn -0.4360 0.8698 -0.2310
vn -0.5035 0.8154 -0.2857
vn -0.4166 0.8678 -0.2708
vn 0.0628 0.1097 0.9920
vn 0.1337 0.0850 0.9874
vn 0.1758 0.0711 0.9819
vn 0.5197 0.6464 -0.5586
vn 0.4714 0.5717 -0.6715
vn 0.3837 0.6568 -0.6492
vn 0.1299 0.9909 -0.0354
vn 0.1266 0.9912 -0.0388
vn 0.1299 0.9909 -0.0353
vn -0.4528 0.3529 -0.8188
vn -0.4573 0.3502 -0.8175
vn -0.3576 0.3434 -0.8684
vn -0.0288 0.9897 -0.1401
vn -0.0281 0.9897 -0.1406
vn -0.0158 0.9885 -0.1507
vn -0.0338 0.9901 -0.1359
vn -0.5307 0.7573 -0.3805
vn -0.5111 0.7483 -0.4229
vn -0.0311 0.8984 -0.4381
vn 0.0400 0.9984 0.0388
vn 0.0402 0.9984 0.0389
vn 0.0401 0.9984 0.0388
vn 0.0743 -0.9938 -0.0827
vn 0.6540 0.3220 0.6845
vn 0.7096 0.1891 0.6788
vn 0.2635 0.9145 0.3069
vn 0.1790 0.9426 0.2818
vn 0.2163 0.8983 0.3824
vn -0.4868 0.8310 -0.2692
vn -0.4676 0.7989 -0.3784
vn -0.1243 0.0589 0.9905
vn -0.1991 0.1921 0.9610
vn -0.2773 0.0229 0.9605
vn 0.7847 0.3043 -0.5401
vn 0.7330 0.4512 -0.5090
vn 0.8005 0.2403 -0.5490
vn -0.7090 0.0801 -0.7007
vn -0.6492 0.0831 -0.7561
vn -0.7395 0.0782 -0.6686
vn -0.3652 0.5112 -0.7780
vn -0.2189 0.5688 -0.7928
vn -0.8506 0.0577 -0.5226
vn -0.9335 0.0259 -0.3577
vn 0.4605 0.3570 -0.8127
vn 0.5250 0.2916 -0.7996
vn 0.5736 0.3622 -0.7347
vn 0.6174 0.2924 -0.7303
vn 0.6428 0.3618 -0.6752
vn -0.8910 0.0439 -0.4519
vn -0.7808 -0.1117 0.6147
vn 0.9747 0.1887 -0.1196
vn 0.9728 0.2008 -0.1153
vn -0.2489 0.7082 -0.6607
vn -0.1170 0.7461 -0.6555
vn -0.5195 0.4917 -0.6989
vn -0.5368 0.3506 -0.7674
vn -0.3477 -0.1520 0.9252
vn -0.8140 0.4066 -0.4149
vn -0.8327 0.4367 -0.3406
vn -0.7258 0.5852 -0.3616
vn 0.4466 0.3830 -0.8086
vn 0.4603 0.3067 -0.8331
vn 0.5715 0.2896 -0.7678
vn -0.7932 0.3780 -0.4775
vn -0.8014 -0.0348 0.5971
vn -0.7185 0.3133 0.6210
vn 0.8665 0.4860 -0.1136
vn 0.9729 0.2003 -0.1154
vn 0.2708 0.9299 0.2487
vn 0.1907 0.9553 0.2257
vn -0.1120 -0.0131 0.9936
vn 0.0859 0.1005 0.9912
vn 0.8098 0.2692 -0.5213
vn 0.8153 0.2089 -0.5400
vn 0.8098 0.2691 -0.5213
vn 0.0026 0.9958 0.0910
vn 0.0143 0.9981 0.0601
vn 0.4834 0.7132 0.5076
vn 0.4286 0.6620 0.6149
vn 0.7155 0.1721 0.6770
vn 0.7619 -0.0006 0.6477
vn -0.9082 -0.2581 0.3295
vn -0.9170 -0.2850 0.2791
vn -0.9170 -0.2849 0.2792
vn -0.7253 0.6536 0.2161
vn -0.7511 0.6413 0.1569
vn -0.7217 0.6550 0.2238
vn -0.0632 -0.9970 0.0457
vn -0.0652 -0.9965 0.0516
vn -0.0630 -0.9970 0.0448
vn 0.2119 -0.0494 0.9761
vn 0.1966 -0.2053 0.9587
vn 0.1967 -0.2053 0.9587
vn 0.0696 0.9971 -0.0303
vn 0.0503 0.9972 -0.0560
vn 0.0603 0.9973 -0.0427
vn 0.2124 0.1256 0.9691
vn 0.1918 -0.0610 0.9795
vn 0.1332 0.9851 0.1086
vn 0.1332 0.9851 0.1087
vn -0.0698 -0.9974 0.0190
vn -0.0722 -0.9973 0.0136
vn -0.6136 0.4820 0.6254
vn -0.6627 0.5120 0.5466
vn -0.6539 0.5407 0.5292
vn -0.7470 -0.0611 0.6620
vn -0.8176 -0.1279 0.5615
vn -0.8431 -0.1560 0.5146
vn -0.6439 0.5065 0.5734
vn -0.6099 0.6579 0.4419
vn -0.7129 0.5210 0.4694
vn 0.6828 -0.7057 0.1894
vn 0.6828 -0.7056 0.1894
vn -0.0420 0.9938 0.1030
vn -0.0238 0.9944 0.1028
vn -0.0239 0.9944 0.1028
vn -0.8136 0.2093 0.5425
vn -0.7084 0.5487 0.4439
vn 0.3637 0.8648 0.3462
vn 0.2731 0.8720 0.4063
vn 0.8154 0.2073 -0.5405
vn -0.0904 0.7626 -0.6405
vn -0.0903 0.7627 -0.6405
vn 0.2338 0.8719 0.4303
vn -0.5716 0.8089 0.1377
vn -0.4031 0.9150 0.0143
vn -0.5944 0.7575 0.2698
vn 0.4920 0.4223 -0.7613
vn 0.5495 0.4319 -0.7152
vn -0.7209 0.5408 -0.4334
vn -0.4854 0.6798 0.5497
vn -0.7533 0.2719 0.5988
vn 0.9162 0.3842 -0.1135
vn -0.0011 -0.9995 0.0307
vn 0.1710 0.9694 -0.1761
vn 0.0189 -0.9975 -0.0684
vn 0.0069 -0.9974 -0.0711
vn 0.0118 -0.9997 0.0190
vn 0.0002 -0.9948 -0.1014
vn 0.0013 -0.9955 -0.0946
vn 0.0116 -0.9964 -0.0838
vn 0.3503 -0.6401 -0.6838
vn 0.3503 -0.6400 -0.6838
vn 0.3504 -0.6400 -0.6838
vn -0.1786 -0.9461 -0.2702
vn -0.2513 -0.8775 -0.4085
vn -0.1734 -0.9503 -0.2588
vn -0.2673 -0.8612 -0.4322
vn -0.3025 -0.8210 -0.4843
vn -0.1440 -0.9702 -0.1949
vn -0.1440 -0.9702 -0.1948
vn -0.1076 -0.9893 0.0989
vn -0.0875 -0.9930 0.0794
vn 0.0457 0.8907 0.4522
vn -0.1019 0.8012 0.5897
vn -0.1182 0.7676 0.6299
vn -0.0868 0.8298 0.5513
vn -0.0507 0.8884 0.4562
vn -0.0506 0.8884 0.4562
vn 0.3843 0.9161 -0.1139
vn 0.1225 0.9915 -0.0428
vn 0.1225 0.9915 -0.0429
vn -0.2995 0.9406 0.1601
vn -0.0312 -0.9970 -0.0707
vn -0.0857 -0.9962 -0.0156
vn -0.0857 -0.9962 -0.0157
vn 0.0800 0.9967 -0.0166
vn -0.6800 0.6458 0.3472
vn -0.9036 -0.2468 0.3500
vn -0.1115 -0.9884 0.1026
vn -0.5174 0.8557 0.0132
vn -0.5088 0.8096 -0.2925
vn -0.5545 0.8156 -0.1651
vn -0.4811 0.8534 -0.2007
vn -0.5665 0.6958 0.4415
vn 0.4374 0.6846 -0.5831
vn 0.3802 0.6135 0.6921
vn 0.1661 -0.9840 -0.0644
vn -0.0361 0.9916 0.1239
vn 0.7416 0.6684 -0.0562
vn -0.1597 -0.9849 0.0662
vn -0.0266 0.9944 0.1025
vn -0.4499 0.7247 0.5218
vn -0.5199 0.6462 0.5587
vn 0.1263 0.9912 -0.0390
vn -0.4529 0.3528 -0.8188
vn 0.0314 -0.9993 -0.0180
vn -0.8326 0.4367 -0.3406
vn 0.2006 0.9638 0.1757
vn -0.0650 -0.9965 0.0517
vn 0.2124 0.1255 0.9691
vn 0.6827 -0.7057 0.1893
vn -0.4952 0.5998 -0.6286
vn 0.1710 0.9694 -0.1762
vn -0.3025 -0.8209 -0.4843
vn -0.6785 0.6417 0.3576
vn -0.5371 0.8331 -0.1321
vt 0.774926 0.394682
vt 0.749010 0.423346
vt 0.735300 0.416753
vt 0.963925 0.830591
vt 0.961556 0.791028
vt 0.979161 0.802138
vt 0.709750 0.946199
vt 0.715065 0.895028
vt 0.726797 0.889233
vt 0.124527 0.128827
vt -0.000000 0.178468
vt 0.112601 0.099265
vt 0.428227 0.008547
vt 0.427270 0.038439
vt 0.377211 0.016865
vt 0.574393 0.135915
vt 0.544378 0.106277
vt 0.560240 0.097904
vt 0.272434 0.113259
vt 0.276177 0.145580
vt 0.520062 0.040927
vt 0.556625 0.043587
vt 0.242161 0.244814
vt 0.205421 0.265561
vt 0.201837 0.234039
vt 0.515682 0.192367
vt 0.561357 0.177890
vt 0.503181 0.230042
vt 0.744801 0.441240
vt 0.697162 0.466599
vt 0.453091 0.132451
vt 0.494539 0.069865
vt 0.366359 0.047988
vt 0.352947 0.032861
vt 0.411983 0.490712
vt 0.437509 0.424495
vt 0.466643 0.411166
vt 0.183096 0.164659
vt 0.128584 0.153644
vt 0.348572 0.197872
vt 0.384713 0.226096
vt 0.383535 0.240721
vt 0.598766 0.348853
vt 0.635320 0.384045
vt 0.603053 0.399047
vt 0.690236 0.210980
vt 0.704327 0.185852
vt 0.694221 0.213928
vt 0.561839 0.180958
vt 0.502044 0.240358
vt 0.552439 0.147734
vt 0.496468 0.432575
vt 0.538478 0.347428
vt 0.560416 0.432985
vt 0.409121 0.213860
vt 0.391860 0.167575
vt 0.427101 0.230244
vt 0.430890 0.245818
vt 0.424964 0.424195
vt 0.421997 0.340835
vt 0.007977 0.108685
vt 0.691246 0.494808
vt 0.697162 0.393476
vt 0.447203 0.332714
vt 0.411031 0.298428
vt 0.422113 0.285514
vt 0.941080 0.368985
vt 0.953046 0.416923
vt 0.944262 0.417127
vt 0.634139 0.322612
vt 0.597890 0.258543
vt 0.629557 0.253887
vt 0.709413 0.185395
vt 0.698630 0.139224
vt 0.709260 0.128110
vt 0.541584 0.313083
vt 0.490990 0.344790
vt 0.484198 0.303011
vt 0.581415 0.367576
vt 0.585215 0.437086
vt 0.768105 0.698653
vt 0.712131 0.643683
vt 0.762144 0.633083
vt 0.550623 0.503636
vt 0.493847 0.534616
vt 0.791156 0.224332
vt 0.742172 0.189933
vt 0.790248 0.193113
vt 0.527619 0.271132
vt 0.476986 0.253887
vt 0.723160 0.253887
vt 0.752732 0.297708
vt 0.697162 0.269791
vt 0.794459 0.128451
vt 0.734562 0.034423
vt 0.794459 -0.000000
vt 0.324081 0.437322
vt 0.295203 0.500442
vt 0.316179 0.432337
vt 0.579351 0.322668
vt 0.690421 0.269650
vt 0.823905 0.637740
vt 0.823486 0.670923
vt 0.729635 0.224526
vt 0.585202 0.275388
vt 0.780259 0.279567
vt 0.784445 0.326569
vt 0.746453 0.129148
vt 0.696321 0.331400
vt 0.456808 0.018197
vt 0.726797 0.932198
vt 0.747414 0.889233
vt 0.747414 0.966758
vt 0.626919 0.489128
vt 0.709750 0.601887
vt 0.824665 0.601568
vt 0.765874 0.587100
vt 0.233494 0.212553
vt 0.328819 0.172709
vt 0.323391 0.239776
vt 0.464465 0.910216
vt 0.417021 0.850470
vt 0.476271 0.850470
vt 0.921385 0.329662
vt 0.915844 0.372680
vt 0.910411 0.336954
vt 0.438097 0.952658
vt 0.424356 0.910066
vt 0.924578 0.281544
vt 0.915598 0.233694
vt 0.937092 0.227428
vt 0.310364 0.264242
vt 0.774551 0.494808
vt 0.824665 0.541101
vt 0.771903 0.557132
vt 0.712929 0.510289
vt 0.710177 0.574277
vt 0.788671 0.334334
vt 0.771456 0.372284
vt 0.761409 0.371385
vt 0.973337 -0.000000
vt 0.988267 0.117144
vt 0.973337 0.136872
vt 0.341494 0.074350
vt 0.354662 0.089465
vt 0.358140 0.072316
vt 0.402550 0.334805
vt 0.332975 0.258352
vt 0.757466 0.371134
vt 0.476986 0.404292
vt 0.459811 0.309943
vt 0.589061 0.367686
vt 0.423098 0.275741
vt 0.708205 0.865328
vt 0.705236 0.937363
vt 0.705236 0.862218
vt 0.295203 0.353637
vt 0.697966 0.217534
vt 0.337209 0.204577
vt 0.386670 0.246767
vt 0.808570 0.309827
vt 0.803563 0.301455
vt 0.688423 0.043087
vt 0.694096 0.031186
vt 0.238876 0.035785
vt 0.186766 -0.000000
vt 0.370385 0.510695
vt 0.198096 0.220534
vt 0.153944 0.317952
vt 0.056532 0.321573
vt 0.021235 0.204892
vt 0.174157 0.300108
vt 0.476986 0.442784
vt 0.195366 0.350737
vt 0.149398 0.353636
vt 0.253731 0.336417
vt 0.377192 0.004447
vt 0.328819 0.253887
vt 0.365956 0.000068
vt 0.348169 0.032967
vt 0.358718 0.144679
vt 0.344227 0.128758
vt 0.729424 0.409139
vt 0.295749 0.303468
vt 0.908311 0.276229
vt 0.995120 0.227428
vt 0.987236 0.278950
vt 0.980162 0.278899
vt 0.516477 0.909484
vt 0.523498 0.971440
vt 0.516477 0.975381
vt 0.354070 0.193740
vt 0.726797 0.992636
vt 0.475427 -0.000000
vt 0.000200 0.214703
vt 0.979161 0.698653
vt 0.959343 0.750026
vt 0.844714 0.232548
vt 0.844714 0.201137
vt 0.863067 0.217752
vt 0.856953 0.205554
vt 0.328819 0.518088
vt 0.368338 0.516705
vt 0.900076 0.191563
vt 0.904079 0.252633
vt 0.900076 0.253748
vt 0.076211 -0.000000
vt 0.714939 0.690291
vt 0.582571 0.500504
vt 0.589061 0.475760
vt 0.937092 0.403219
vt 0.460313 0.953186
vt 0.817112 0.500165
vt 0.941080 0.487624
vt 0.432079 0.253887
vt 0.328819 0.133264
vt 0.324731 0.443640
vt 0.328819 0.506296
vt 0.324731 0.506390
vt 0.057562 0.347407
vt 0.589061 0.264841
vt 0.325585 0.359569
vt 0.328819 0.353636
vt 0.328819 0.443640
vt 0.372055 0.000000
vt 0.978188 0.275420
vt 0.995120 0.342704
s 1
f 4/1/1 104/2/2 16/3/3
f 20/4/4 6/5/5 17/6/6
f 100/7/7 99/8/7 15/9/7
f 14/10/8 5/11/9 8/12/10
f 100/13/11 61/14/12 2/15/11
f 6/16/13 102/17/14 103/18/15
f 14/10/8 1/19/16 10/20/17
f 103/18/18 9/21/18 18/22/18
f 106/23/19 92/24/20 107/25/21
f 27/26/22 20/27/4 24/28/23
f 16/3/3 105/29/24 113/30/25
f 28/31/26 61/14/12 13/32/27
f 2/15/28 11/33/29 21/34/30
f 90/35/31 32/36/32 81/37/33
f 14/10/34 94/38/34 95/39/34
f 82/40/35 19/41/36 84/42/37
f 45/43/38 59/44/39 64/45/40
f 20/46/4 83/47/41 85/48/42
f 24/28/23 85/49/42 87/50/43
f 28/31/44 102/17/45 101/51/46
f 23/52/47 44/53/48 43/54/49
f 28/31/50 29/55/51 30/56/52
f 28/31/50 26/57/53 29/55/51
f 19/41/36 26/57/54 25/58/55
f 26/57/56 24/28/56 25/58/56
f 18/59/57 62/60/58 32/36/59
f 33/61/60 8/12/10 5/11/9
f 34/62/61 59/44/62 56/63/61
f 88/64/63 31/65/64 78/66/65
f 84/67/37 25/68/66 80/69/67
f 58/70/68 46/71/69 42/72/70
f 50/73/71 90/74/72 55/75/73
f 39/76/74 22/77/75 7/78/76
f 43/54/49 47/79/77 54/80/78
f 37/81/79 65/82/80 67/83/80
f 23/52/81 40/84/82 12/85/83
f 12/86/83 38/87/84 5/88/85
f 37/89/79 7/78/76 3/90/86
f 1/91/16 41/92/87 10/93/17
f 33/94/88 35/95/89 34/96/88
f 54/97/78 80/98/90 87/99/91
f 51/100/92 44/53/48 39/76/93
f 1/101/94 58/70/68 42/72/70
f 37/81/95 69/102/96 49/103/97
f 54/80/98 40/84/82 43/54/99
f 40/104/82 50/73/100 38/87/84
f 49/105/97 39/76/101 37/89/95
f 42/106/102 53/107/103 41/92/87
f 55/75/104 35/95/89 36/108/105
f 81/37/106 62/60/107 88/64/63
f 59/44/39 57/109/108 56/63/109
f 5/88/110 36/108/111 33/94/112
f 13/32/27 60/110/113 9/21/114
f 9/111/115 63/112/116 18/113/115
f 35/114/117 64/45/118 59/44/62
f 110/115/119 67/83/120 65/82/121
f 111/116/122 67/83/123 109/117/124
f 72/118/125 66/119/126 75/120/127
f 41/121/128 66/122/129 10/123/130
f 112/124/131 69/125/132 111/126/133
f 41/121/128 70/127/134 68/128/135
f 74/129/136 70/130/136 53/131/137
f 106/23/138 75/120/127 110/132/139
f 68/133/140 77/134/141 76/135/142
f 66/136/143 76/135/144 75/137/145
f 86/138/146 73/139/147 89/140/148
f 14/141/149 96/142/150 12/143/150
f 11/33/29 73/144/147 21/34/30
f 4/145/151 71/146/151 61/14/12
f 31/65/152 63/147/153 15/148/153
f 53/107/154 89/140/148 74/149/155
f 48/150/156 88/64/63 64/151/157
f 50/73/71 36/108/111 38/87/158
f 87/50/91 25/58/159 24/28/160
f 51/100/92 80/152/90 47/79/77
f 64/151/157 78/66/65 45/153/161
f 108/154/162 49/155/163 112/156/164
f 87/99/43 52/157/165 54/97/98
f 52/158/165 83/47/166 50/73/100
f 49/159/97 84/42/37 51/160/167
f 79/161/168 53/107/103 46/162/169
f 55/75/104 81/163/33 48/164/170
f 57/165/171 8/12/10 56/166/171
f 90/35/172 17/167/172 18/59/172
f 93/168/173 95/39/174 94/38/175
f 98/169/176 97/170/176 96/171/176
f 91/172/177 93/168/173 107/25/178
f 12/85/179 97/173/180 23/52/181
f 7/174/182 98/169/183 91/172/184
f 22/175/185 97/170/186 98/169/183
f 3/176/187 91/172/184 92/24/188
f 72/118/189 94/38/190 10/20/190
f 99/177/191 100/13/191 2/15/191
f 79/178/192 45/153/193 78/66/194
f 15/148/195 78/66/194 31/65/196
f 79/179/168 21/34/30 86/180/146
f 101/51/197 102/17/14 6/16/13
f 102/17/45 9/21/198 103/18/199
f 105/181/200 104/182/200 4/145/200
f 92/24/201 91/172/177 107/25/178
f 89/140/148 112/183/164 74/149/155
f 106/23/138 65/184/202 3/176/203
f 112/124/131 77/185/204 74/129/204
f 76/135/205 111/116/122 109/117/124
f 75/137/145 109/117/206 110/115/119
f 89/186/148 16/187/3 108/188/162
f 72/118/189 107/25/21 93/168/207
f 108/189/162 113/190/25 82/191/208
f 29/55/209 113/192/210 30/56/211
f 16/3/3 73/139/147 4/1/1
f 73/144/147 71/146/212 4/145/1
f 20/27/4 101/51/213 6/16/5
f 15/9/7 63/193/116 100/7/7
f 63/194/116 60/110/214 100/13/7
f 14/10/8 12/195/215 5/11/9
f 60/110/113 61/14/12 100/13/11
f 61/14/12 11/33/216 2/15/11
f 14/10/8 8/12/10 1/19/16
f 18/196/18 17/6/217 103/197/18
f 17/6/217 6/5/217 103/197/18
f 106/23/19 3/176/218 92/24/20
f 27/26/22 101/51/213 20/27/4
f 16/3/3 104/2/2 105/29/24
f 28/31/26 30/56/219 61/14/12
f 21/198/30 15/199/220 2/200/28
f 15/199/220 99/201/221 2/200/28
f 14/10/34 10/20/34 94/38/34
f 82/40/35 113/192/210 19/41/36
f 45/43/38 58/70/68 59/44/39
f 20/202/4 17/167/6 83/203/41
f 24/204/23 20/205/4 85/206/42
f 101/51/46 27/26/46 28/31/44
f 28/31/44 13/32/222 102/17/45
f 23/52/47 22/77/223 44/53/48
f 28/31/50 27/26/53 26/57/53
f 19/41/36 29/55/209 26/57/54
f 26/57/56 27/26/56 24/28/56
f 18/59/57 63/147/59 62/60/58
f 33/61/60 34/207/224 8/12/10
f 34/62/61 35/114/117 59/44/62
f 88/64/63 62/60/107 31/65/64
f 84/42/37 19/41/36 25/58/66
f 58/70/68 45/43/38 46/71/69
f 50/73/71 83/47/72 90/74/72
f 39/76/74 44/53/75 22/77/75
f 43/54/49 44/53/48 47/79/77
f 37/81/79 3/208/86 65/82/80
f 23/52/81 43/54/99 40/84/82
f 12/86/83 40/104/82 38/87/84
f 37/89/79 39/76/74 7/78/76
f 1/91/16 42/106/102 41/92/87
f 33/94/88 36/108/105 35/95/89
f 54/80/78 47/79/77 80/152/90
f 51/100/92 47/79/77 44/53/48
f 1/101/94 57/109/108 58/70/68
f 37/81/95 67/83/225 69/102/96
f 54/80/98 52/209/165 40/84/82
f 40/104/82 52/158/165 50/73/100
f 49/105/97 51/100/167 39/76/101
f 42/106/102 46/162/169 53/107/103
f 55/75/104 48/164/170 35/95/89
f 81/37/106 32/36/226 62/60/107
f 59/44/39 58/70/68 57/109/108
f 5/88/110 38/87/158 36/108/111
f 13/32/27 61/14/12 60/110/113
f 9/21/115 60/110/214 63/194/116
f 35/114/117 48/210/118 64/45/118
f 110/115/119 109/117/206 67/83/120
f 111/116/122 69/102/123 67/83/123
f 72/118/125 10/20/227 66/119/126
f 41/121/128 68/128/135 66/122/129
f 112/124/131 49/211/132 69/125/132
f 41/121/128 53/212/228 70/127/134
f 74/129/136 77/185/136 70/130/136
f 106/23/138 72/118/125 75/120/127
f 68/133/140 70/213/140 77/134/141
f 66/136/143 68/133/143 76/135/144
f 86/180/146 21/34/30 73/144/147
f 14/10/149 95/39/229 96/171/150
f 11/33/29 71/146/212 73/144/147
f 11/33/216 61/14/12 71/146/151
f 61/14/12 30/56/219 4/145/151
f 30/56/219 105/181/151 4/145/151
f 31/65/152 62/60/153 63/147/153
f 53/107/154 86/138/146 89/140/148
f 48/150/156 81/37/106 88/64/63
f 50/73/71 55/75/73 36/108/111
f 87/214/91 80/69/90 25/68/159
f 51/160/92 84/42/230 80/215/90
f 64/151/157 88/64/63 78/66/65
f 108/216/162 82/40/208 49/159/163
f 87/217/43 85/218/42 52/219/165
f 52/158/165 85/48/42 83/47/166
f 49/159/97 82/40/35 84/42/37
f 79/161/168 86/138/146 53/107/103
f 55/75/104 90/74/31 81/163/33
f 1/19/16 8/12/10 57/165/171
f 8/12/10 34/207/224 56/166/171
f 18/59/172 32/36/172 90/35/172
f 90/35/172 83/203/231 17/167/172
f 95/39/174 91/172/177 96/171/176
f 91/172/177 98/169/176 96/171/176
f 91/172/177 95/39/174 93/168/173
f 12/195/179 96/171/179 97/170/180
f 7/174/182 22/175/185 98/169/183
f 22/175/185 23/220/232 97/170/186
f 3/176/187 7/174/182 91/172/184
f 72/118/189 93/168/207 94/38/190
f 79/221/192 46/71/193 45/43/193
f 15/222/195 79/223/192 78/224/194
f 79/179/168 15/225/220 21/34/30
f 102/17/45 13/32/222 9/21/198
f 89/186/148 108/188/162 112/226/164
f 106/23/138 110/132/139 65/184/202
f 112/124/131 111/126/133 77/185/204
f 76/135/205 77/134/233 111/116/122
f 75/137/145 76/135/144 109/117/206
f 89/140/148 73/139/147 16/3/3
f 72/118/189 106/23/19 107/25/21
f 108/188/162 16/187/3 113/227/25
f 19/41/36 113/192/210 29/55/209
f 113/192/210 105/181/234 30/56/211
