# Blender 4.2.3 LTS
# www.blender.org
mtllib Piedra3.mtl
o crystal_9
v 1.843681 -0.086186 0.011754
v 2.524212 -0.086186 -0.476263
v 2.192575 0.447172 -0.060404
v 1.988074 -0.086186 0.011754
v 1.988074 0.328605 0.011754
v 2.402865 -0.086186 0.055211
v 2.402865 0.192727 -0.060404
v 2.402865 0.192727 0.055211
v 2.402865 0.328605 -0.060404
v 2.135042 0.328605 -0.132547
v 2.135863 0.328605 -0.128953
v 2.192575 0.328605 -0.060404
v 2.023653 0.328605 0.011754
v 2.062136 0.447172 -0.320632
v 2.095815 0.447172 -0.304412
v 2.135042 0.447172 -0.132547
v 2.062136 -0.086186 -0.320631
v 2.429294 0.192727 -0.060404
v 2.576887 0.192727 -0.245479
v 2.550844 -0.086186 -0.359580
v 2.550844 0.192727 -0.359580
v 2.524212 0.326532 -0.476263
v 2.712449 0.163294 -0.359580
v 2.712449 0.192727 -0.280749
v 2.685658 0.192727 -0.359580
v 2.576887 0.354829 -0.245479
v 2.529307 0.429378 -0.185816
v 2.507234 0.447172 -0.203111
v 1.933667 0.483349 -0.382499
v 2.310935 0.310054 -0.578972
v 2.097658 0.400235 -0.476263
v 2.086080 0.447172 -0.425540
v 2.463456 0.382357 -0.505522
v 2.129618 0.571074 -0.121123
v 2.095815 0.536650 -0.304412
v 2.135863 0.567728 -0.128953
v 2.478539 0.447172 -0.287545
v 2.447859 0.411228 -0.474088
v 2.340227 0.447172 -0.432529
v 1.969211 0.571074 -0.289269
v 2.056929 0.541781 -0.323139
v 2.377887 0.447172 -0.060404
v 2.402865 0.328605 0.102063
v 2.429294 0.424544 -0.060404
v 2.023653 0.555318 0.011754
v 2.064044 0.571074 -0.038896
v 1.988074 0.328605 0.157694
v 1.988074 0.215744 0.235740
v 2.232115 0.328605 0.215576
v 2.161658 0.303266 0.235740
v 2.169799 0.328605 0.221961
v 2.402865 -0.064141 0.235740
v 2.359335 -0.086186 0.235740
v 2.712449 -0.086186 -0.013161
v 2.712449 -0.037064 0.055211
v 2.402865 -0.086186 0.205057
v 2.615450 -0.086186 0.055211
v 1.988074 -0.086186 0.158030
v 1.988074 -0.037463 0.235740
v 2.157605 -0.086186 0.235740
v 2.320606 -0.086186 -0.574314
v 2.097658 -0.070044 -0.476263
v 1.944679 -0.086186 -0.377196
v 2.092770 -0.086186 -0.454848
v 1.933667 -0.076701 -0.382499
v 2.310935 -0.077856 -0.578972
v 2.712449 0.192727 -0.027092
v 2.641930 0.192727 0.055211
v 2.515857 0.437718 -0.168950
v 2.502886 0.447172 -0.168140
v 2.453973 0.434171 -0.091349
v 2.453837 0.447172 -0.110894
v 2.712449 0.138422 0.055211
v 2.402865 0.293123 0.155653
v 2.292617 0.277003 0.235740
v 2.269885 0.307353 0.222564
v 2.402865 0.202288 0.235740
v 2.712449 0.056715 -0.359580
v 2.712449 -0.086186 -0.310297
v 2.678530 -0.086186 -0.359580
v 1.819350 -0.086186 -0.018757
v 1.771519 0.069951 -0.304412
v 1.849397 -0.073615 -0.341917
v 1.854489 -0.086186 -0.329904
v 1.744348 0.107675 -0.150367
v 1.761010 0.537465 -0.258369
v 1.735279 0.354465 -0.135286
v 1.843681 0.433830 0.011754
v 1.857449 0.571074 -0.111352
v 2.010927 0.571074 -0.003584
v 2.015815 0.558767 0.011754
v 1.823233 0.533679 -0.099199
v 1.820599 0.449441 -0.019556
v 1.761706 0.539338 -0.261422
v 1.792590 0.543001 -0.314560
v 1.830206 0.571074 -0.285446
v 1.771519 0.533932 -0.304412
v 1.806580 0.571074 -0.233660
vn 0.3445 0.7827 0.5183
vn -0.8675 0.3558 0.3476
vn 0.3804 -0.7511 0.5396
vn 0.2313 0.9476 -0.2206
vn -0.7818 -0.0000 0.6235
vn 0.7172 0.6528 -0.2437
vn -0.0187 0.7317 -0.6814
vn 0.5904 0.8038 0.0734
vn 0.5407 0.7021 0.4633
vn -0.4339 -0.0000 -0.9010
vn 0.4339 -0.0000 -0.9010
vn -0.3228 -0.7189 -0.6156
vn 0.9749 -0.0000 -0.2225
vn 0.7818 -0.0000 0.6235
vn -0.0000 -0.0000 1.0000
vn -0.2771 0.5430 0.7927
vn -1.0000 -0.0000 -0.0000
vn -0.2366 -0.8232 0.5161
vn -0.0000 1.0000 -0.0000
vn 0.8084 -0.1919 -0.5564
vn -0.9749 -0.0000 -0.2225
vn 1.0000 -0.0000 -0.0000
vn 0.0909 0.4531 0.8868
vn 0.4090 0.6035 0.6845
vn -0.0000 -0.0000 -1.0000
vn -0.8978 -0.4319 -0.0857
vn -0.8979 -0.4319 -0.0857
vn -0.4717 0.8551 -0.2152
vn -0.4505 0.6207 0.6416
vn -0.6629 0.6961 0.2757
vn -0.8301 -0.0131 0.5575
vn -0.8301 -0.0132 0.5575
vn -0.9802 -0.0086 -0.1978
vn -0.9802 -0.0086 -0.1979
vt 0.694051 0.224526
vt 0.695629 0.226864
vt 0.688423 0.248893
vt 0.688423 0.226089
vt 0.191105 0.405247
vt 0.219647 0.375642
vt 0.280449 0.377829
vt 0.237545 0.443273
vt 0.695629 0.237109
vt 0.704508 0.224526
vt 0.704508 0.243564
vt 0.598074 0.745214
vt 0.633480 0.705432
vt 0.652121 0.710650
vt 0.597059 0.759044
vt 0.466404 0.594277
vt 0.469152 0.661569
vt 0.428327 0.654939
vt 0.794459 0.243249
vt 0.794459 0.201137
vt 0.824928 0.202588
vt 0.824928 0.244699
vt 0.809730 0.372478
vt 0.820480 0.400468
vt 0.808570 0.401762
vt 0.476986 0.671273
vt 0.429122 0.707418
vt 0.346688 0.687276
vt 0.471033 0.550010
vt 0.476986 0.554901
vt 0.470416 0.562653
vt 0.466391 0.550715
vt 0.562448 0.761200
vt 0.587955 0.760900
vt 0.587658 0.790628
vt 0.000000 0.720592
vt -0.000000 0.553071
vt 0.083688 0.586275
vt 0.083688 0.724455
vt 0.128058 0.556997
vt 0.145732 0.575480
vt 0.319007 0.590061
vt 0.315901 0.592404
vt 0.315901 0.500442
vt 0.321920 0.505440
vt 0.908618 0.507461
vt 0.912010 0.508597
vt 0.933680 0.568950
vt 0.925542 0.582101
vt 0.899864 0.623213
vt 0.892538 0.588954
vt 0.730619 0.849975
vt 0.815464 0.847799
vt 0.827161 0.871687
vt 0.941080 0.403219
vt 0.941080 0.487625
vt 0.939766 0.487609
vt 0.939766 0.445757
vt 0.688423 0.236204
vt 0.685532 0.237154
vt 0.655166 0.234648
vt 0.636461 0.227506
vt 0.661585 0.910768
vt 0.652971 0.953153
vt 0.589061 0.955128
vt 0.589061 0.913008
vt 0.278811 0.821000
vt 0.269115 0.824492
vt 0.268317 0.767709
vt 0.311834 0.763135
vt 0.904131 0.715079
vt 0.904131 0.805010
vt 0.877311 0.845979
vt 0.827161 0.847630
vt 0.867175 0.631188
vt 0.894972 0.631545
vt 0.867175 0.692139
vt 0.589061 0.779961
vt 0.648034 0.849937
vt 0.644726 0.862218
vt 0.594348 0.848660
vt 0.858098 0.400881
vt 0.908311 0.384007
vt 0.906611 0.403219
vt 0.824928 0.229177
vt 0.844714 0.201137
vt 0.844714 0.243561
vt 0.577984 0.568197
vt 0.540611 0.558277
vt 0.576470 0.534616
vt 0.950051 0.189433
vt 0.906952 0.002725
vt 0.950051 0.000000
vt 0.155667 0.687268
vt 0.160355 0.687569
vt 0.159204 0.721004
vt 0.155667 0.723671
vt 0.414902 0.521910
vt 0.433004 0.518088
vt 0.443821 0.527228
vt 0.445116 0.534169
vt 0.876916 0.466445
vt 0.854883 0.491108
vt 0.848655 0.493557
vt 0.819998 0.489931
vt 0.928505 0.920945
vt 0.912089 0.954398
vt 0.849750 0.954398
vt 0.829707 0.930078
vt 0.539196 0.868685
vt 0.587658 0.881306
vt 0.578080 0.909484
vt 0.529886 0.909473
vt 0.808570 0.282780
vt 0.827361 0.253887
vt 0.286615 0.866760
vt 0.361356 0.850470
vt 0.333640 0.812448
vt 0.322915 0.767283
vt 0.352157 0.707418
vt 0.275525 0.859436
vt 0.311834 0.906483
vt 0.276034 0.911745
vt 0.204188 0.811084
vt 0.268112 0.807710
vt 0.265863 0.901728
vt 0.904131 0.699869
vt 0.950190 0.698654
vt 0.959344 0.708897
vt 0.959344 0.746862
vt 0.237702 0.530503
vt 0.285513 0.595323
vt 0.181942 0.595323
vt 0.844178 0.630272
vt 0.835890 0.631188
vt 0.824666 0.620151
vt 0.832815 0.603409
vt 0.169254 0.353636
vt 0.221145 0.360929
vt 0.624191 0.147349
vt 0.633758 0.228815
vt 0.574393 0.186267
vt 0.735213 0.792940
vt 0.776765 0.796787
vt 0.827161 0.702587
vt 0.784669 0.698653
vt 0.824666 0.556766
vt 0.850252 0.494808
vt 0.873051 0.495257
vt 0.476986 0.539438
vt 0.485254 0.536314
vt 0.287399 0.543456
vt 0.281463 0.377150
vt 0.295203 0.378849
vt 0.688651 0.798332
vt 0.708205 0.725744
vt 0.708205 0.824893
vt 0.707041 0.824276
vt 0.268112 0.846566
vt 0.670700 0.944567
vt 0.670700 0.862218
vt 0.661585 0.862499
vt 0.322915 0.635614
vt 0.338806 0.670648
vt 0.335000 0.564528
vt 0.349992 0.535149
vt 0.333552 0.627527
vt 0.716423 0.885818
vt 0.709750 0.877882
vt 0.747628 0.889233
vt 0.816001 0.882158
vt 0.086501 0.727198
vt 0.145732 0.722496
vt 0.916364 0.191563
vt 0.900076 0.175922
vt 0.900076 0.008893
vt 0.543815 0.760900
vt 0.540611 0.757776
vt 0.577984 0.758188
vt 0.587782 0.567419
vt 0.587782 0.535546
vt 0.849886 0.614488
vt 0.507545 0.756250
vt 0.476986 0.704715
vt 0.169100 0.594100
vt 0.177846 0.409613
vt 0.163301 0.357711
vt 0.688423 0.151259
vt 0.636461 0.146970
vt 0.624191 -0.000000
vt 0.574393 0.001538
vt 0.877427 0.698653
vt 0.827161 0.700308
vt 0.442105 0.707418
vt 0.461219 0.765885
vt 0.456001 0.850470
vt 0.463368 0.835457
vt 0.221904 0.763135
vt 0.240556 0.775656
vt 0.201833 0.909507
vt 0.254826 0.909507
vt 0.164448 0.763135
vt 0.163301 0.811084
vt 0.926241 0.847630
vt 0.827161 0.847630
vt 0.486434 0.802512
vt 0.476986 0.761179
vt 0.476986 0.802509
vt 0.889301 0.254567
vt 0.906952 0.278935
vt 0.904131 0.799222
vt 0.947755 0.798071
vt 0.290347 0.591147
vt 0.808570 0.485568
vt 0.808570 0.403219
vt 0.876916 0.408860
vt 0.268113 0.363777
vt 0.876916 0.445006
vt 0.876916 0.413422
s 1
f 91/1/1 45/2/1 46/3/1 90/4/1
f 93/5/2 92/6/2 86/7/2 87/8/2
f 52/9/3 53/10/3 56/11/3
f 76/12/1 74/13/1 43/14/1 49/15/1
f 37/16/4 38/17/4 39/18/4
f 16/19/5 10/20/5 12/21/5 3/22/5
f 24/23/6 23/24/6 25/25/6
f 38/17/7 33/26/7 30/27/7 31/28/7
f 69/29/8 27/30/8 28/31/8 70/32/8
f 68/33/9 73/34/9 67/35/9
f 62/36/10 31/37/10 30/38/10 66/39/10
f 30/38/11 33/40/11 22/41/11
f 66/42/12 61/43/12 64/44/12 62/45/12
f 34/46/4 36/47/4 35/48/4 41/49/4
f 29/50/7 40/51/7 41/49/7
f 26/52/6 22/53/6 33/54/6
f 36/55/13 11/56/13 10/57/13 16/58/13
f 36/59/14 34/60/14 46/61/14 45/62/14
f 9/63/15 42/64/15 3/65/15 12/66/15
f 50/67/16 51/68/16 47/69/16 48/70/16
f 59/71/17 48/72/17 47/73/17 5/74/17
f 59/75/18 58/76/18 60/77/18
f 51/78/19 13/79/19 5/80/19 47/81/19
f 78/82/20 79/83/20 80/84/20
f 55/85/3 57/86/3 54/87/3
f 14/88/11 29/89/11 41/90/11
f 14/91/21 64/92/21 17/93/21
f 84/94/12 83/95/12 65/96/12 63/97/12
f 42/98/1 44/99/1 71/100/1 72/101/1
f 37/16/19 72/101/19 70/32/19 28/31/19
f 69/29/9 70/32/9 72/101/9 71/100/9
f 26/102/14 27/103/14 69/104/14 71/105/14
f 57/106/15 55/107/15 73/108/15 68/109/15
f 19/110/19 24/111/19 25/112/19 21/113/19
f 23/24/22 24/23/22 67/114/22 73/115/22
f 51/68/23 50/67/23 75/116/23
f 77/117/15 75/118/15 50/119/15 48/120/15
f 76/121/24 75/116/24 77/122/24 74/123/24
f 8/124/22 77/125/22 52/126/22
f 21/127/25 25/128/25 23/129/25 78/130/25
f 85/131/26 84/132/26 81/133/27
f 95/134/28 97/135/28 94/136/28 98/137/28
f 90/138/29 89/139/29 92/6/29 93/5/29
f 89/139/30 86/7/30 92/6/30
f 5/140/15 91/141/15 88/142/15
f 81/133/31 93/5/31 87/8/31 85/131/32
f 19/143/13 21/144/13 22/53/13 26/52/13
f 2/145/13 22/53/13 21/144/13 20/146/13
f 34/46/19 89/147/19 90/148/19 46/149/19
f 97/150/10 95/151/10 29/89/10
f 82/152/33 86/7/34 94/153/34 97/154/34
f 12/155/19 49/15/19 43/14/19 9/156/19
f 12/155/19 13/79/19 51/78/19 49/15/19
f 10/157/19 11/158/19 13/79/19 12/155/19
f 49/159/23 51/68/23 75/116/23 76/121/23
f 44/160/15 42/64/15 9/63/15
f 18/161/15 44/160/15 9/63/15 7/162/15
f 14/163/19 39/18/19 32/164/19
f 16/165/19 3/166/19 42/98/19 72/101/19
f 15/167/19 37/16/19 39/18/19 14/163/19
f 15/167/19 16/165/19 72/101/19 37/16/19
f 28/168/6 27/169/6 26/52/6 37/170/6
f 37/170/6 26/52/6 33/54/6 38/171/6
f 39/18/7 38/17/7 31/28/7 32/164/7
f 61/172/11 22/41/11 2/173/11
f 66/39/11 30/38/11 22/41/11 61/172/11
f 32/174/21 31/175/21 14/91/21
f 31/175/21 62/176/21 64/92/21 14/91/21
f 63/177/11 65/178/11 29/89/11 14/88/11
f 17/179/11 63/177/11 14/88/11
f 15/180/11 14/88/11 41/90/11 35/181/11
f 95/134/7 96/182/7 40/51/7 29/50/7
f 83/183/10 82/184/10 65/178/10
f 82/184/10 97/150/10 29/89/10 65/178/10
f 85/131/34 87/8/34 86/7/34 82/152/33
f 1/185/31 88/186/31 93/5/31 81/133/31
f 91/187/29 90/138/29 93/5/29 88/186/29
f 40/51/19 96/182/19 98/137/19
f 34/46/19 40/51/19 98/137/19 89/147/19
f 40/51/4 34/46/4 41/49/4
f 11/188/14 36/59/14 45/62/14 13/189/14
f 13/189/15 45/62/15 91/141/15 5/140/15
f 4/190/15 5/140/15 88/142/15 1/191/15
f 58/192/17 59/71/17 5/74/17 4/193/17
f 77/117/15 48/120/15 59/194/15 60/195/15
f 52/196/15 77/117/15 60/195/15 53/197/15
f 43/198/22 74/199/22 77/125/22 8/124/22
f 6/200/22 8/124/22 52/126/22 56/201/22
f 9/202/22 43/198/22 8/124/22 7/203/22
f 6/204/15 57/106/15 68/109/15 8/205/15
f 68/33/19 67/35/19 18/206/19
f 8/207/19 68/33/19 18/206/19 7/208/19
f 18/206/19 67/35/19 24/111/19 19/110/19
f 78/82/22 23/24/22 73/115/22 55/209/22
f 79/83/22 78/82/22 55/209/22 54/210/22
f 20/211/25 21/127/25 78/130/25 80/212/25
f 82/152/27 83/213/27 84/132/26 85/131/26
f 26/102/14 71/105/14 44/214/14 18/215/14
f 19/216/14 26/102/14 18/215/14
f 98/217/30 94/153/30 86/7/30 89/139/30
f 96/182/28 95/134/28 98/137/28
f 15/218/13 35/219/13 16/58/13
f 35/219/13 36/55/13 16/58/13
